<svg xmlns="http://www.w3.org/2000/svg" version="1.1" xmlns:xlink="http://www.w3.org/1999/xlink" width="512" height="512" x="0" y="0" viewBox="0 0 16.933 16.933" style="enable-background:new 0 0 512 512" xml:space="preserve" class="__web-inspector-hide-shortcut__"><g><path fill="#5299d3" d="M2.117 15.731v.408c0 .146.117.265.263.265h12.173c.146 0 .264-.12.263-.265v-.408c0-2.172-1.628-3.954-3.705-4.083H5.822c-2.076.129-3.705 1.91-3.705 4.083z" paint-order="stroke fill markers" opacity="1" data-original="#5299d3" class=""></path><path fill="#ffccaa" d="M7.145 9.922a.265.265 0 0 0-.267.263v2.501c.001.146.12.264.267.264h2.644a.265.265 0 0 0 .266-.264v-2.5a.265.265 0 0 0-.266-.264z" opacity="1" data-original="#ffccaa" class=""></path><path fill="#ffb889" d="M7.145 9.922a.265.265 0 0 0-.266.263v.765a2.694 2.694 0 0 0 3.176 0v-.765a.265.265 0 0 0-.266-.263z" opacity="1" data-original="#ffb889"></path><path fill="#3385c8" d="M5.822 11.648c-2.076.129-3.705 1.911-3.705 4.083v.408c0 .146.117.265.263.265h.53a.265.265 0 0 1-.264-.265v-.408c0-2.172 1.63-3.954 3.706-4.083h-.53z" paint-order="stroke fill markers" opacity="1" data-original="#3385c8"></path><path fill="#a0c7e7" d="m6.427 10.926-.795.793a.265.265 0 0 0 0 .373l1.854 1.851c.103.103.27.103.373 0l.608-.605.607.605c.103.103.27.103.373 0l1.852-1.851a.265.265 0 0 0 0-.373l-.793-.793a.265.265 0 0 0-.375 0L8.467 12.59 6.8 10.926a.265.265 0 0 0-.189-.078.265.265 0 0 0-.184.078z" opacity="1" data-original="#a0c7e7" class=""></path><path fill="#5299d3" d="m8.334.562-6.88 3.661a.234.234 0 0 0 .014.428l3.994 1.83.119-.218h5.77l.118.219 3.996-1.831a.234.234 0 0 0 .014-.428L8.599.563a.287.287 0 0 0-.266 0z" opacity="1" data-original="#5299d3" class=""></path><path fill="#ffb889" d="M5.86 7.087c-.553 0-.987.478-.987 1.04 0 .56.434 1.04.986 1.04a.913.913 0 0 0 .227-.032V7.116a.938.938 0 0 0-.227-.029z" opacity="1" data-original="#ffb889"></path><path fill="#ffccaa" d="M12.061 8.127c0 .56-.434 1.04-.986 1.04a.913.913 0 0 1-.227-.032V7.116a.938.938 0 0 1 .227-.029c.552 0 .986.478.986 1.04z" opacity="1" data-original="#ffccaa" class=""></path><path fill="#356287" d="M8.467 4.462c-.823 0-1.565.074-2.121.205-.278.066-.51.143-.694.248-.182.104-.354.264-.357.502-.016.078-.198 1.039.543 1.778l.078.078h5.101l.077-.078c.74-.74.56-1.7.545-1.778-.004-.238-.176-.398-.358-.502a2.613 2.613 0 0 0-.693-.248c-.556-.131-1.299-.205-2.121-.205z" opacity="1" data-original="#356287" class=""></path><path fill="#2c5170" d="M6.346 4.667c-.278.066-.51.143-.694.248-.181.104-.354.264-.358.502-.015.078-.197 1.039.544 1.778l.078.078h.53l-.079-.078c-.74-.739-.559-1.7-.544-1.778.004-.238.177-.398.359-.502.183-.105.415-.182.693-.248.495-.117 1.141-.185 1.856-.2-.088-.001-.174-.005-.264-.005-.823 0-1.565.074-2.121.205z" opacity="1" data-original="#2c5170"></path><path fill="#ffccaa" d="M7.812 5.316a.265.265 0 0 0-.267.262 1.075 1.075 0 0 1-1.076 1.068h-.444a.265.265 0 0 0-.263.264v1.328c0 1.492 1.21 2.7 2.705 2.7a2.702 2.702 0 0 0 2.705-2.7V6.91a.265.265 0 0 0-.264-.264H9.353c-.643 0-1.185-.47-1.283-1.106a.265.265 0 0 0-.258-.224z" opacity="1" data-original="#ffccaa" class=""></path><path fill="#eeeeee" d="m3.44 3.167-.53.282v3.694h.53z" opacity="1" data-original="#eeeeee"></path><path fill="#ffca28" d="M2.911 6.614a.265.265 0 0 0-.265.264v2.389c0 .147.119.266.265.265h.529c.146 0 .264-.119.263-.265v-2.39a.265.265 0 0 0-.263-.263z" opacity="1" data-original="#ffca28"></path><path fill="#a0c7e7" d="M8.467 2.91c-.823 0-1.565.076-2.12.202a2.746 2.746 0 0 0-.69.237.858.858 0 0 0-.24.182.477.477 0 0 0-.126.31v1.55c0 .008.003.015.004.023v.003c-.008.036-.05.266-.02.571.2-.196.299-.301.472-.422.146-.102.36-.24.827-.363.32-.085.728-.154 1.202-.19.222-.013.45-.021.69-.021s.47.008.691.02c.475.037.882.106 1.202.191.466.123.681.261.827.363.173.12.272.226.473.422a2.065 2.065 0 0 0-.02-.57l-.001-.004c0-.008.004-.015.004-.024V3.841a.477.477 0 0 0-.126-.31.858.858 0 0 0-.24-.182 2.745 2.745 0 0 0-.69-.237c-.555-.126-1.297-.201-2.12-.201z" opacity="1" data-original="#a0c7e7" class=""></path><path fill="#ecb200" d="M2.911 6.614a.265.265 0 0 0-.265.264v2.39c0 .146.119.265.265.265h.529a.265.265 0 0 1-.265-.266v-2.39c0-.145.119-.263.265-.263z" opacity="1" data-original="#ecb200"></path><path fill="#74addc" d="M5.658 3.348a.86.86 0 0 0-.24.182.478.478 0 0 0-.127.311V5.39c0 .009.003.016.004.024v.003c-.008.036-.05.265-.02.57.2-.196.299-.3.472-.421l.062-.042.014-.107v-.003c0-.008-.003-.015-.003-.024V3.841c0-.123.058-.234.126-.31a.86.86 0 0 1 .241-.183c.183-.098.412-.172.69-.236.493-.112 1.14-.184 1.854-.198a12.811 12.811 0 0 0-.264-.003c-.823 0-1.565.075-2.12.201a2.746 2.746 0 0 0-.689.236z" opacity="1" data-original="#74addc" class=""></path><path fill="#ffb889" d="M6.025 6.646a.265.265 0 0 0-.263.264v1.328c0 1.186.767 2.19 1.832 2.553a2.902 2.902 0 0 1-1.509-2.545V6.817c0-.062.021-.122.058-.17z" opacity="1" data-original="#ffb889"></path><g fill="#3385c8"><path d="M4.774 14.818a.265.265 0 0 0-.275.286v1.297h.527v-1.297a.265.265 0 0 0-.252-.286zM12.183 14.818a.265.265 0 0 0-.276.286v1.297h.527v-1.297a.265.265 0 0 0-.251-.286z" fill="#3385c8" opacity="1" data-original="#3385c8"></path></g></g></svg>