<svg xmlns="http://www.w3.org/2000/svg" version="1.1" xmlns:xlink="http://www.w3.org/1999/xlink" width="512" height="512" x="0" y="0" viewBox="0 0 100 100" style="enable-background:new 0 0 512 512" xml:space="preserve" class=""><g><g fill="#3a3a3a"><path d="M76.57 67.83c0 6.69-5.43 12.12-12.12 12.12-6.68 0-12.11-5.43-12.11-12.12 0-.53.04-1.05.11-1.55 8.51-.1 16.62-.65 23.71-1.6.26 1.01.41 2.06.41 3.15zM47.657 67.83c0 6.691-5.426 12.117-12.108 12.117-6.692 0-12.117-5.426-12.117-12.118 0-1.087.147-2.143.411-3.145 7.083.95 15.2 1.499 23.708 1.593.074.507.106 1.025.106 1.552zM97.5 52.09c0 5.51-21.27 9.98-47.5 9.98S2.5 57.6 2.5 52.09c0-3.48 8.51-6.54 21.41-8.32 2.15-7.03 4.6-13.42 7.54-18.71a9.755 9.755 0 0 1 13.46-3.66c.04.03.09.06.14.08a9.755 9.755 0 0 0 9.9 0c.05-.02.1-.05.14-.08a9.755 9.755 0 0 1 13.46 3.66c2.94 5.29 5.39 11.68 7.54 18.71 12.9 1.78 21.41 4.84 21.41 8.32z" fill="#3a3a3a" opacity="1" data-original="#3a3a3a"></path></g><path fill="#666666" d="M76.16 64.68c.26 1.01.41 2.06.41 3.15 0 6.69-5.43 12.12-12.12 12.12-6.68 0-12.11-5.43-12.11-12.12 0-.53.04-1.05.11-1.55 8.51-.1 16.62-.65 23.71-1.6zM97.5 52.09c0 5.51-21.27 9.98-47.5 9.98V22.83c1.71 0 3.42-.45 4.95-1.35.05-.02.1-.05.14-.08a9.755 9.755 0 0 1 13.46 3.66c2.94 5.29 5.39 11.68 7.54 18.71 12.9 1.78 21.41 4.84 21.41 8.32z" opacity="1" data-original="#666666"></path></g></svg>